<svg id="svg" xmlns="http://www.w3.org/2000/svg" xmlns:xlink="http://www.w3.org/1999/xlink" width="400" height="231.11111111111111" viewBox="0, 0, 400,231.11111111111111"><g id="svgg"><path id="path0" d="M189.116 0.472 C 121.168 7.533,74.851 70.789,88.743 137.556 C 97.612 180.184,132.826 215.805,174.889 224.698 C 255.827 241.809,326.682 173.424,311.757 92.600 C 301.200 35.427,246.702 -5.512,189.116 0.472 M224.891 66.891 L 232.215 74.226 210.330 96.114 L 188.445 118.003 201.664 131.222 L 214.883 144.440 207.330 152.109 L 199.778 159.778 207.446 152.226 L 215.114 144.673 221.889 151.448 L 228.663 158.222 221.107 165.778 L 213.551 173.334 199.335 159.113 L 185.119 144.891 192.670 137.223 L 200.222 129.556 192.554 137.108 L 184.885 144.661 171.666 131.442 L 158.447 118.223 187.778 88.889 C 203.910 72.756,217.211 59.556,217.337 59.556 C 217.463 59.556,220.862 62.856,224.891 66.891 M207.111 84.222 C 211.139 88.256,214.534 91.556,214.657 91.556 C 214.779 91.556,211.583 88.256,207.556 84.222 C 203.528 80.189,200.132 76.889,200.010 76.889 C 199.888 76.889,203.083 80.189,207.111 84.222 " stroke="none" fill="#000000" fill-rule="evenodd"></path></g></svg>